<svg width="22" height="22" viewBox="0 0 22 22" fill="none" xmlns="http://www.w3.org/2000/svg">
<path d="M3.66667 0.6875H1C0.447715 0.6875 0 1.13522 0 1.6875V1.97917C0 2.53145 0.447715 2.97917 1 2.97917H2.76091L5.25824 13.5036C5.66745 15.2282 7.18726 16.4549 8.95098 16.4988V16.5H16.1218C17.9082 16.5 19.4346 15.2126 19.7359 13.4518L20.8869 6.7259C21.0785 5.60607 20.2159 4.58333 19.0798 4.58333H5.49686L4.78154 1.56879C4.65897 1.05221 4.19758 0.6875 3.66667 0.6875Z" fill="#818181"/>
<path d="M9.16667 19.25C9.16667 20.2625 8.34585 21.0833 7.33333 21.0833C6.32081 21.0833 5.5 20.2625 5.5 19.25C5.5 18.2375 6.32081 17.4167 7.33333 17.4167C8.34585 17.4167 9.16667 18.2375 9.16667 19.25Z" fill="#818181"/>
<path d="M19.25 19.25C19.25 20.2625 18.4292 21.0833 17.4167 21.0833C16.4041 21.0833 15.5833 20.2625 15.5833 19.25C15.5833 18.2375 16.4041 17.4167 17.4167 17.4167C18.4292 17.4167 19.25 18.2375 19.25 19.25Z" fill="#818181"/>
</svg>
