<svg width="19" height="19" viewBox="0 0 19 19" fill="none" xmlns="http://www.w3.org/2000/svg">
<path fill-rule="evenodd" clip-rule="evenodd" d="M8.12804 0C3.63905 0 0 3.63904 0 8.12803C0 12.617 3.63905 16.2561 8.12804 16.2561C9.90938 16.2561 11.5569 15.683 12.8963 14.7112L16.9344 18.7494C17.2686 19.0835 17.8103 19.0835 18.1444 18.7494L18.7494 18.1444C19.0835 17.8103 19.0835 17.2686 18.7494 16.9344L14.7112 12.8963C15.683 11.5569 16.2561 9.90938 16.2561 8.12803C16.2561 3.63904 12.617 0 8.12804 0ZM2.56675 8.12803C2.56675 5.05662 5.05662 2.56675 8.12804 2.56675C11.1994 2.56675 13.6893 5.05662 13.6893 8.12803C13.6893 11.1994 11.1994 13.6893 8.12804 13.6893C5.05662 13.6893 2.56675 11.1994 2.56675 8.12803Z" fill="#818181"/>
</svg>
